<svg xmlns="http://www.w3.org/2000/svg" width="20" height="18.357" viewBox="0 0 20 18.357">
  <g id="chat" transform="translate(0 -2.465)">
    <path id="Path_321" data-name="Path 321" d="M9.333,24.132h4.333a.333.333,0,1,0,0-.667H9.333a.333.333,0,0,0,0,.667Z" transform="translate(-6 -14)" fill="#fff"/>
    <path id="Path_322" data-name="Path 322" d="M18,29.465H9.333a.333.333,0,1,0,0,.667H18a.333.333,0,0,0,0-.667Z" transform="translate(-6 -18)" fill="#fff"/>
    <path id="Path_323" data-name="Path 323" d="M18,35.465H9.333a.333.333,0,0,0,0,.667H18a.333.333,0,0,0,0-.667Z" transform="translate(-6 -22)" fill="#fff"/>
    <path id="Path_324" data-name="Path 324" d="M18.024,2.488,6.643,2.465A1.979,1.979,0,0,0,4.667,4.442V6.15l-2.69.006A1.979,1.979,0,0,0,0,8.132v7.047a1.979,1.979,0,0,0,1.977,1.976H4v3.333a.333.333,0,0,0,.58.224l3.235-3.558,5.542-.023a1.979,1.979,0,0,0,1.977-1.976v-.038l1.753,1.929a.333.333,0,0,0,.58-.224V13.489h.357A1.979,1.979,0,0,0,20,11.513V4.465A1.979,1.979,0,0,0,18.024,2.488ZM14.667,15.155a1.311,1.311,0,0,1-1.311,1.31l-5.69.023a.334.334,0,0,0-.245.109L4.667,19.626v-2.8a.333.333,0,0,0-.333-.333H1.977a1.311,1.311,0,0,1-1.31-1.31V8.132a1.312,1.312,0,0,1,1.311-1.31L5,6.815H5L13.357,6.8a1.311,1.311,0,0,1,1.31,1.31v7.047Zm4.667-3.643a1.311,1.311,0,0,1-1.31,1.31h-.69a.333.333,0,0,0-.333.333v2.8l-1.667-1.833V8.108a1.979,1.979,0,0,0-1.977-1.977l-8.023.016V4.441a1.311,1.311,0,0,1,1.309-1.31l11.38.023h0a1.311,1.311,0,0,1,1.31,1.31v7.047Z" fill="#fff"/>
  </g>
</svg>
