<svg xmlns="http://www.w3.org/2000/svg" width="20" height="15.642" viewBox="0 0 20 15.642">
  <path id="designer" d="M18.633,64.405H1.2a.687.687,0,0,1-.693-.64.675.675,0,0,1,.674-.708H5.817s.231,0,.255-.006L10.06,61.82a.254.254,0,0,0,.1-.063l6.5-6.5A2.2,2.2,0,0,0,15.126,51.5a2.253,2.253,0,0,0-1.606.672L7.049,58.641a.254.254,0,0,0-.063.1l-1.174,3.8h-4.6A1.2,1.2,0,0,0,0,63.7a1.183,1.183,0,0,0,1.182,1.218H18.612a.874.874,0,0,1,.88.827.861.861,0,0,1-.859.893H5.8a.254.254,0,0,0,0,.508H18.605A1.39,1.39,0,0,0,20,65.749,1.369,1.369,0,0,0,18.633,64.405ZM15.1,52.006a1.7,1.7,0,0,1,1.265,2.823,2.2,2.2,0,0,0-2.393-2.393A1.683,1.683,0,0,1,15.1,52.006Zm.271,1.424a1.7,1.7,0,0,1,0,2.4L10.19,61.013a2.974,2.974,0,0,0-2.4-2.391l5.191-5.191A1.7,1.7,0,0,1,15.375,53.431ZM7.411,59.089a2.417,2.417,0,0,1,2.313,2.3l-1.6.493a1.62,1.62,0,0,0-1.208-1.2Zm-.643,2.083a1.1,1.1,0,0,1,.872.864l-1.259.389Z" transform="translate(0 -51.499)" fill="#fff"/>
</svg>
